# xmcd
# 
# Track frame offsets:
#     150
#     16212
#     40816
#     61401
#     80266
#     104065
#     120789
#     143739
#     161856
#     191619
#     216593
#     237483
#     263044
#     283417
# 
# Disc length: 4114
# 
# Revision: 0
# Processed by: cddbd v1.5.2PL0 Copyright (c) Steve Scherf et al.
# Submitted via: fre:ac v1.0.31
# 
DISCID=ce10100e
DTITLE=canoue - chronicle2 -Vocal Disc-
DYEAR=0
DGENRE=
TTITLE0=涙降る大地
TTITLE1=錆び往く禍の城
TTITLE2=翼の仔
TTITLE3=氷の魔女は眠る
TTITLE4=滅びに吹く風
TTITLE5=レト〜女王の唇は語る〜
TTITLE6=禁忌を覗いた竜
TTITLE7=或る辺境の物語
TTITLE8=いつか君に届く手紙
TTITLE9=変わりゆくもの
TTITLE10=紅き炎の行方
TTITLE11=蒼き祠の伝承
TTITLE12=君がくれた奇跡
TTITLE13=星はいつか
EXTD=
EXTT0=
EXTT1=
EXTT2=
EXTT3=
EXTT4=
EXTT5=
EXTT6=
EXTT7=
EXTT8=
EXTT9=
EXTT10=
EXTT11=
EXTT12=
EXTT13=
PLAYORDER=
